<svg width="851" height="847" viewBox="0 0 851 847" fill="none" xmlns="http://www.w3.org/2000/svg">
<path fill-rule="evenodd" clip-rule="evenodd" d="M715.811 311.017L523.907 346.329L545.44 323.628L698.71 288.317L829.883 24.0387L440.616 432.81L448.712 439.553L448.723 439.562L448.734 439.573L828.012 822.655L697.444 557.856L537.841 527.93L509.973 500.185L714.544 535.156L839.947 839.087L827.492 826.607L431.919 456.369L425.738 449.265L419.558 456.369L17.6332 830.975L9.21338 839.087L137.492 535.063L137.548 535.054L342.443 500.028L314.342 528.004L314.32 528.026L314.288 528.032L154.736 557.949L20.4398 824.527L402.742 439.573L402.753 439.562L402.765 439.553L410.86 432.81L323.411 340.573L321.037 340.11L326.936 346.329L135.032 311.017L9.62917 7.08665L18.496 15.9145L425.738 419.408L832.347 15.9145L841.213 7.08665L715.811 311.017ZM24.9095 30.4867L152.132 288.317L305.402 323.628L320.544 339.59L322.918 340.053L21.1674 23.6227L24.9095 30.4867Z" fill="white"/>
<path d="M715.811 311.017L717.621 320.852L722.977 319.866L725.055 314.831L715.811 311.017ZM523.907 346.329L516.652 339.446L495.524 361.719L525.716 356.163L523.907 346.329ZM545.44 323.628L543.195 313.884L540.259 314.56L538.185 316.746L545.44 323.628ZM698.71 288.317L700.955 298.062L705.565 297L707.668 292.763L698.71 288.317ZM829.883 24.0387L838.84 28.4846L822.641 17.1425L829.883 24.0387ZM440.616 432.81L433.374 425.914L426.004 433.654L434.216 440.494L440.616 432.81ZM448.712 439.553L455.155 431.905L455.133 431.887L455.111 431.869L448.712 439.553ZM448.723 439.562L455.862 432.559L455.529 432.221L455.166 431.915L448.723 439.562ZM448.734 439.573L441.595 446.576L441.611 446.593L441.628 446.609L448.734 439.573ZM828.012 822.655L820.906 829.69L836.981 818.232L828.012 822.655ZM697.444 557.856L706.412 553.434L704.201 548.949L699.286 548.028L697.444 557.856ZM537.841 527.93L530.785 535.017L532.969 537.191L535.998 537.759L537.841 527.93ZM509.973 500.185L511.658 490.328L480.56 485.012L502.918 507.272L509.973 500.185ZM714.544 535.156L723.788 531.342L721.679 526.231L716.229 525.299L714.544 535.156ZM839.947 839.087L832.868 846.15L849.191 835.273L839.947 839.087ZM827.492 826.607L834.571 819.543L834.45 819.422L834.326 819.306L827.492 826.607ZM431.919 456.369L424.374 462.933L424.711 463.32L425.085 463.67L431.919 456.369ZM425.738 449.265L433.282 442.701L425.738 434.03L418.194 442.702L425.738 449.265ZM419.558 456.369L426.376 463.684L426.758 463.328L427.102 462.933L419.558 456.369ZM17.6332 830.975L10.8151 823.659L10.7545 823.716L10.695 823.773L17.6332 830.975ZM9.21338 839.087L-5.91278e-05 835.199L16.1516 846.288L9.21338 839.087ZM137.492 535.063L135.818 525.204L130.411 526.122L128.279 531.176L137.492 535.063ZM137.548 535.054L139.222 544.913L139.233 544.911L137.548 535.054ZM342.443 500.028L349.498 507.114L371.857 484.854L340.758 490.171L342.443 500.028ZM314.342 528.004L321.384 535.105L321.391 535.098L321.398 535.09L314.342 528.004ZM314.32 528.026L316.221 537.844L319.203 537.266L321.361 535.127L314.32 528.026ZM314.288 528.032L316.131 537.861L316.16 537.856L316.189 537.85L314.288 528.032ZM154.736 557.95L152.893 548.121L148.031 549.032L145.805 553.45L154.736 557.95ZM20.4398 824.527L11.509 820.028L27.5352 831.573L20.4398 824.527ZM402.742 439.573L409.838 446.62L409.859 446.598L409.881 446.576L402.742 439.573ZM402.753 439.562L396.31 431.915L395.947 432.221L395.615 432.559L402.753 439.562ZM402.765 439.553L396.365 431.869L396.343 431.887L396.321 431.905L402.765 439.553ZM410.86 432.81L417.26 440.494L425.454 433.669L418.117 425.93L410.86 432.81ZM323.411 340.573L330.668 333.693L328.466 331.372L325.326 330.759L323.411 340.573ZM321.037 340.11L322.953 330.295L292.26 324.305L313.782 346.992L321.037 340.11ZM326.936 346.329L325.126 356.163L355.319 361.719L334.191 339.446L326.936 346.329ZM135.032 311.017L125.788 314.831L127.865 319.866L133.222 320.852L135.032 311.017ZM9.62917 7.08665L16.6846 4.76837e-06L0.385119 10.9008L9.62917 7.08665ZM18.496 15.9145L11.4406 23.0011L11.4491 23.0096L11.4577 23.0182L18.496 15.9145ZM425.738 419.408L418.7 426.512L425.743 433.491L432.782 426.506L425.738 419.408ZM832.347 15.9145L839.39 23.0127L839.396 23.0069L839.402 23.0011L832.347 15.9145ZM841.213 7.08665L850.457 10.9008L834.158 4.76837e-06L841.213 7.08665ZM24.9095 30.4867L33.8772 26.0617L33.787 25.8789L33.6895 25.7L24.9095 30.4867ZM152.132 288.317L143.164 292.742L145.264 296.996L149.887 298.062L152.132 288.317ZM305.402 323.628L312.657 316.746L310.583 314.56L307.647 313.884L305.402 323.628ZM320.544 339.59L313.289 346.472L315.489 348.792L318.628 349.405L320.544 339.59ZM322.918 340.053L321.002 349.868L351.833 355.886L330.155 333.152L322.918 340.053ZM21.1674 23.6227L28.4044 16.7215L12.3874 28.4093L21.1674 23.6227ZM715.811 311.017L714.001 301.182L522.097 336.494L523.907 346.329L525.716 356.163L717.621 320.852L715.811 311.017ZM523.907 346.329L531.162 353.211L552.695 330.511L545.44 323.628L538.185 316.746L516.652 339.446L523.907 346.329ZM545.44 323.628L547.685 333.373L700.955 298.062L698.71 288.317L696.465 278.572L543.195 313.884L545.44 323.628ZM698.71 288.317L707.668 292.763L838.84 28.4846L829.883 24.0387L820.926 19.5927L689.753 283.871L698.71 288.317ZM829.883 24.0387L822.641 17.1425L433.374 425.914L440.616 432.81L447.858 439.706L837.125 30.9348L829.883 24.0387ZM440.616 432.81L434.216 440.494L442.312 447.237L448.712 439.553L455.111 431.869L447.016 425.126L440.616 432.81ZM448.712 439.553L442.268 447.2L442.28 447.21L448.723 439.562L455.166 431.915L455.155 431.905L448.712 439.553ZM448.723 439.562L441.585 446.565L441.595 446.576L448.734 439.573L455.872 432.57L455.862 432.559L448.723 439.562ZM448.734 439.573L441.628 446.609L820.906 829.69L828.012 822.655L835.118 815.619L455.84 432.538L448.734 439.573ZM828.012 822.655L836.981 818.232L706.412 553.434L697.444 557.856L688.475 562.279L819.043 827.077L828.012 822.655ZM697.444 557.856L699.286 548.028L539.684 518.101L537.841 527.93L535.998 537.759L695.601 567.685L697.444 557.856ZM537.841 527.93L544.896 520.843L517.029 493.099L509.973 500.185L502.918 507.272L530.785 535.017L537.841 527.93ZM509.973 500.185L508.288 510.042L712.859 545.013L714.544 535.156L716.229 525.299L511.658 490.328L509.973 500.185ZM714.544 535.156L705.3 538.97L830.702 842.901L839.947 839.087L849.191 835.273L723.788 531.342L714.544 535.156ZM839.947 839.087L847.025 832.023L834.571 819.543L827.492 826.607L820.414 833.67L832.868 846.15L839.947 839.087ZM17.6332 830.975L10.695 823.773L2.27516 831.885L9.21338 839.087L16.1516 846.288L24.5714 838.176L17.6332 830.975ZM137.492 535.063L139.166 544.922L139.222 544.913L137.548 535.054L135.875 525.195L135.818 525.204L137.492 535.063ZM314.342 528.004L307.301 520.903L307.279 520.925L314.32 528.026L321.361 535.127L321.384 535.105L314.342 528.004ZM314.32 528.026L312.419 518.209L312.387 518.215L314.288 528.032L316.189 537.85L316.221 537.844L314.32 528.026ZM314.288 528.032L312.445 518.204L152.893 548.121L154.736 557.95L156.579 567.778L316.131 537.861L314.288 528.032ZM154.736 557.95L145.805 553.45L11.509 820.028L20.4398 824.527L29.3705 829.026L163.667 562.449L154.736 557.95ZM20.4398 824.527L27.5352 831.573L409.838 446.62L402.742 439.573L395.647 432.527L13.3443 817.48L20.4398 824.527ZM402.742 439.573L409.881 446.576L409.892 446.565L402.753 439.562L395.615 432.559L395.604 432.57L402.742 439.573ZM402.753 439.562L409.196 447.21L409.208 447.2L402.765 439.553L396.321 431.905L396.31 431.915L402.753 439.562ZM402.765 439.553L409.164 447.236L417.26 440.494L410.86 432.81L404.46 425.126L396.365 431.869L402.765 439.553ZM410.86 432.81L418.117 425.93L330.668 333.693L323.411 340.573L316.154 347.454L403.603 439.69L410.86 432.81ZM323.411 340.573L325.326 330.759L322.953 330.295L321.037 340.11L319.121 349.925L321.495 350.388L323.411 340.573ZM321.037 340.11L313.782 346.992L319.681 353.211L326.936 346.329L334.191 339.446L328.292 333.228L321.037 340.11ZM326.936 346.329L328.745 336.494L136.841 301.182L135.032 311.017L133.222 320.852L325.126 356.163L326.936 346.329ZM135.032 311.017L144.276 307.203L18.8732 3.27253L9.62917 7.08665L0.385119 10.9008L125.788 314.831L135.032 311.017ZM9.62917 7.08665L2.57372 14.1733L11.4406 23.0011L18.496 15.9145L25.5515 8.82782L16.6846 4.76837e-06L9.62917 7.08665ZM18.496 15.9145L11.4577 23.0182L418.7 426.512L425.738 419.408L432.776 412.304L25.5343 8.81078L18.496 15.9145ZM425.738 419.408L432.782 426.506L839.39 23.0127L832.347 15.9145L825.303 8.81626L418.694 412.31L425.738 419.408ZM832.347 15.9145L839.402 23.0011L848.269 14.1733L841.213 7.08665L834.158 4.76837e-06L825.291 8.82782L832.347 15.9145ZM841.213 7.08665L831.969 3.27253L706.567 307.203L715.811 311.017L725.055 314.831L850.457 10.9008L841.213 7.08665ZM24.9095 30.4867L15.9418 34.9116L143.164 292.742L152.132 288.317L161.1 283.892L33.8772 26.0617L24.9095 30.4867ZM152.132 288.317L149.887 298.062L303.157 333.373L305.402 323.628L307.647 313.884L154.377 278.572L152.132 288.317ZM305.402 323.628L298.147 330.511L313.289 346.472L320.544 339.59L327.799 332.708L312.657 316.746L305.402 323.628ZM320.544 339.59L318.628 349.405L321.002 349.868L322.918 340.053L324.833 330.239L322.459 329.775L320.544 339.59ZM322.918 340.053L330.155 333.152L28.4044 16.7215L21.1674 23.6227L13.9305 30.5239L315.681 346.955L322.918 340.053ZM21.1674 23.6227L12.3874 28.4093L16.1296 35.2733L24.9095 30.4867L33.6895 25.7L29.9474 18.836L21.1674 23.6227ZM827.492 826.607L834.326 819.306L438.752 449.068L431.919 456.369L425.085 463.67L820.659 833.908L827.492 826.607ZM431.919 456.369L439.463 449.805L433.282 442.701L425.738 449.265L418.194 455.829L424.374 462.933L431.919 456.369ZM425.738 449.265L418.194 442.702L412.013 449.805L419.558 456.369L427.102 462.933L433.282 455.829L425.738 449.265ZM419.558 456.369L412.739 449.054L10.8151 823.659L17.6332 830.975L24.4513 838.29L426.376 463.684L419.558 456.369ZM9.21338 839.087L18.4268 842.974L146.705 538.951L137.492 535.063L128.279 531.176L-5.91278e-05 835.199L9.21338 839.087ZM137.548 535.054L139.233 544.911L344.128 509.885L342.443 500.028L340.758 490.171L135.863 525.197L137.548 535.054ZM342.443 500.028L335.388 492.941L307.287 520.917L314.342 528.004L321.398 535.09L349.498 507.114L342.443 500.028Z" fill="white"/>
</svg>
