<svg width="4037" height="4029" viewBox="0 0 4037 4029" fill="none" xmlns="http://www.w3.org/2000/svg">
<path fill-rule="evenodd" clip-rule="evenodd" d="M3415.53 1475.38L2492.91 1645.14L2596.44 1536.01L3333.32 1366.24L3963.95 95.6733L2092.48 2060.92L2131.4 2093.34L2131.45 2093.38L2131.51 2093.44L3954.96 3935.17L3327.23 2662.1L2559.9 2518.23L2425.93 2384.84L3409.44 2552.97L4012.34 4014.17L3952.46 3954.17L2050.66 2174.19L2020.95 2140.03L1991.24 2174.19L58.9065 3975.17L18.4268 4014.17L635.151 2552.52L635.421 2552.48L1620.49 2384.08L1485.39 2518.58L1485.28 2518.69L1485.13 2518.72L718.055 2662.55L72.3998 3944.17L1910.39 2093.44L1910.44 2093.38L1910.5 2093.34L1949.42 2060.92L1528.99 1617.48L1517.58 1615.25L1545.94 1645.14L623.323 1475.38L20.4258 14.1733L63.0548 56.6147L2020.95 1996.49L3975.8 56.6147L4018.43 14.1733L3415.53 1475.38ZM93.889 126.673L705.536 1366.24L1442.41 1536.01L1515.21 1612.75L1526.62 1614.98L75.898 93.6733L93.889 126.673Z" fill="white"/>
<path d="M3415.53 1475.38L3419.15 1495.05L3429.86 1493.08L3434.02 1483.01L3415.53 1475.38ZM2492.91 1645.14L2478.4 1631.38L2436.15 1675.93L2496.53 1664.81L2492.91 1645.14ZM2596.44 1536.01L2591.95 1516.52L2586.08 1517.87L2581.93 1522.24L2596.44 1536.01ZM3333.32 1366.24L3337.81 1385.73L3347.03 1383.61L3351.23 1375.13L3333.32 1366.24ZM3963.95 95.6733L3981.87 104.565L3949.47 81.881L3963.95 95.6733ZM2092.48 2060.92L2078 2047.13L2063.25 2062.61L2079.68 2076.29L2092.48 2060.92ZM2131.4 2093.34L2144.29 2078.04L2144.24 2078L2144.2 2077.97L2131.4 2093.34ZM2131.45 2093.38L2145.73 2079.38L2145.07 2078.7L2144.34 2078.09L2131.45 2093.38ZM2131.51 2093.44L2117.23 2107.44L2117.26 2107.47L2117.29 2107.51L2131.51 2093.44ZM3954.96 3935.17L3940.75 3949.24L3972.9 3926.33L3954.96 3935.17ZM3327.23 2662.1L3345.16 2653.26L3340.74 2644.29L3330.91 2642.45L3327.23 2662.1ZM2559.9 2518.23L2545.79 2532.4L2550.16 2536.75L2556.22 2537.89L2559.9 2518.23ZM2425.93 2384.84L2429.3 2365.13L2367.1 2354.49L2411.82 2399.01L2425.93 2384.84ZM3409.44 2552.97L3427.93 2545.34L3423.71 2535.12L3412.81 2533.26L3409.44 2552.97ZM4012.34 4014.17L3998.18 4028.3L4030.82 4006.55L4012.34 4014.17ZM3952.46 3954.17L3966.62 3940.05L3966.38 3939.8L3966.13 3939.57L3952.46 3954.17ZM2050.66 2174.19L2035.58 2187.31L2036.25 2188.09L2037 2188.79L2050.66 2174.19ZM2020.95 2140.03L2036.04 2126.9L2020.95 2109.56L2005.86 2126.9L2020.95 2140.03ZM1991.24 2174.19L2004.87 2188.82L2005.64 2188.1L2006.32 2187.31L1991.24 2174.19ZM58.9065 3975.17L45.2703 3960.54L45.1493 3960.66L45.0301 3960.77L58.9065 3975.17ZM18.4268 4014.17L-0.000118256 4006.4L32.3032 4028.58L18.4268 4014.17ZM635.151 2552.52L631.803 2532.8L620.988 2534.64L616.724 2544.75L635.151 2552.52ZM635.421 2552.48L638.768 2572.2L638.78 2572.19L638.791 2572.19L635.421 2552.48ZM1620.49 2384.08L1634.6 2398.25L1679.32 2353.73L1617.12 2364.37L1620.49 2384.08ZM1485.39 2518.58L1499.48 2532.78L1499.49 2532.77L1499.5 2532.76L1485.39 2518.58ZM1485.28 2518.69L1489.09 2538.33L1495.05 2537.17L1499.37 2532.89L1485.28 2518.69ZM1485.13 2518.72L1488.82 2538.38L1488.88 2538.37L1488.94 2538.36L1485.13 2518.72ZM718.055 2662.55L714.369 2642.89L704.644 2644.72L700.193 2653.55L718.055 2662.55ZM72.3998 3944.17L54.5383 3935.18L86.5907 3958.27L72.3998 3944.17ZM1910.39 2093.44L1924.58 2107.53L1924.63 2107.49L1924.67 2107.44L1910.39 2093.44ZM1910.44 2093.38L1897.56 2078.09L1896.83 2078.7L1896.17 2079.38L1910.44 2093.38ZM1910.5 2093.34L1897.7 2077.97L1897.66 2078L1897.61 2078.04L1910.5 2093.34ZM1949.42 2060.92L1962.22 2076.29L1978.61 2062.64L1963.93 2047.16L1949.42 2060.92ZM1528.99 1617.48L1543.5 1603.71L1539.1 1599.07L1532.82 1597.85L1528.99 1617.48ZM1517.58 1615.25L1521.41 1595.62L1460.03 1583.64L1503.07 1629.01L1517.58 1615.25ZM1545.94 1645.14L1542.32 1664.81L1602.7 1675.93L1560.45 1631.38L1545.94 1645.14ZM623.323 1475.38L604.834 1483.01L608.989 1493.08L619.703 1495.05L623.323 1475.38ZM20.4258 14.1733L34.5367 4.00543e-05L1.93766 21.8016L20.4258 14.1733ZM63.0548 56.6147L48.9439 70.788L48.9611 70.8051L48.9782 70.8221L63.0548 56.6147ZM2020.95 1996.49L2006.87 2010.7L2020.96 2024.65L2035.04 2010.68L2020.95 1996.49ZM3975.8 56.6147L3989.89 70.8112L3989.9 70.7996L3989.91 70.788L3975.8 56.6147ZM4018.43 14.1733L4036.92 21.8016L4004.32 4.00543e-05L4018.43 14.1733ZM93.889 126.673L111.824 117.823L111.644 117.458L111.449 117.1L93.889 126.673ZM705.536 1366.24L687.601 1375.09L691.8 1383.6L701.046 1385.73L705.536 1366.24ZM1442.41 1536.01L1456.92 1522.24L1452.77 1517.87L1446.9 1516.52L1442.41 1536.01ZM1515.21 1612.75L1500.7 1626.51L1505.1 1631.15L1511.38 1632.38L1515.21 1612.75ZM1526.62 1614.98L1522.79 1634.6L1584.45 1646.64L1541.09 1601.17L1526.62 1614.98ZM75.898 93.6733L90.3719 79.8709L58.3381 103.247L75.898 93.6733ZM3415.53 1475.38L3411.91 1455.71L2489.29 1625.47L2492.91 1645.14L2496.53 1664.81L3419.15 1495.05L3415.53 1475.38ZM2492.91 1645.14L2507.42 1658.91L2610.95 1549.77L2596.44 1536.01L2581.93 1522.24L2478.4 1631.38L2492.91 1645.14ZM2596.44 1536.01L2600.93 1555.5L3337.81 1385.73L3333.32 1366.24L3328.83 1346.75L2591.95 1516.52L2596.44 1536.01ZM3333.32 1366.24L3351.23 1375.13L3981.87 104.565L3963.95 95.6733L3946.04 86.7815L3315.4 1357.35L3333.32 1366.24ZM3963.95 95.6733L3949.47 81.881L2078 2047.13L2092.48 2060.92L2106.96 2074.71L3978.44 109.466L3963.95 95.6733ZM2092.48 2060.92L2079.68 2076.29L2118.6 2108.7L2131.4 2093.34L2144.2 2077.97L2105.28 2045.55L2092.48 2060.92ZM2131.4 2093.34L2118.51 2108.63L2118.57 2108.68L2131.45 2093.38L2144.34 2078.09L2144.29 2078.04L2131.4 2093.34ZM2131.45 2093.38L2117.18 2107.39L2117.23 2107.44L2131.51 2093.44L2145.78 2079.43L2145.73 2079.38L2131.45 2093.38ZM2131.51 2093.44L2117.29 2107.51L3940.75 3949.24L3954.96 3935.17L3969.17 3921.1L2145.72 2079.36L2131.51 2093.44ZM3954.96 3935.17L3972.9 3926.33L3345.16 2653.26L3327.23 2662.1L3309.29 2670.95L3937.02 3944.02L3954.96 3935.17ZM3327.23 2662.1L3330.91 2642.45L2563.59 2498.57L2559.9 2518.23L2556.22 2537.89L3323.54 2681.76L3327.23 2662.1ZM2559.9 2518.23L2574.02 2504.05L2440.04 2370.67L2425.93 2384.84L2411.82 2399.01L2545.79 2532.4L2559.9 2518.23ZM2425.93 2384.84L2422.56 2404.55L3406.07 2572.68L3409.44 2552.97L3412.81 2533.26L2429.3 2365.13L2425.93 2384.84ZM3409.44 2552.97L3390.95 2560.6L3993.85 4021.8L4012.34 4014.17L4030.82 4006.55L3427.93 2545.34L3409.44 2552.97ZM4012.34 4014.17L4026.49 4000.05L3966.62 3940.05L3952.46 3954.17L3938.3 3968.3L3998.18 4028.3L4012.34 4014.17ZM58.9065 3975.17L45.0301 3960.77L4.55033 3999.77L18.4268 4014.17L32.3032 4028.58L72.783 3989.58L58.9065 3975.17ZM635.151 2552.52L638.498 2572.24L638.768 2572.2L635.421 2552.48L632.074 2532.76L631.803 2532.8L635.151 2552.52ZM1485.39 2518.58L1471.31 2504.38L1471.2 2504.49L1485.28 2518.69L1499.37 2532.89L1499.48 2532.78L1485.39 2518.58ZM1485.28 2518.69L1481.48 2499.06L1481.33 2499.08L1485.13 2518.72L1488.94 2538.36L1489.09 2538.33L1485.28 2518.69ZM1485.13 2518.72L1481.45 2499.06L714.369 2642.89L718.055 2662.55L721.74 2682.21L1488.82 2538.38L1485.13 2518.72ZM718.055 2662.55L700.193 2653.55L54.5383 3935.18L72.3998 3944.17L90.2612 3953.17L735.916 2671.55L718.055 2662.55ZM72.3998 3944.17L86.5907 3958.27L1924.58 2107.53L1910.39 2093.44L1896.2 2079.34L58.2089 3930.08L72.3998 3944.17ZM1910.39 2093.44L1924.67 2107.44L1924.72 2107.39L1910.44 2093.38L1896.17 2079.38L1896.12 2079.43L1910.39 2093.44ZM1910.44 2093.38L1923.33 2108.68L1923.39 2108.63L1910.5 2093.34L1897.61 2078.04L1897.56 2078.09L1910.44 2093.38ZM1910.5 2093.34L1923.3 2108.7L1962.22 2076.29L1949.42 2060.92L1936.62 2045.55L1897.7 2077.97L1910.5 2093.34ZM1949.42 2060.92L1963.93 2047.16L1543.5 1603.71L1528.99 1617.48L1514.48 1631.24L1934.91 2074.68L1949.42 2060.92ZM1528.99 1617.48L1532.82 1597.85L1521.41 1595.62L1517.58 1615.25L1513.75 1634.88L1525.16 1637.1L1528.99 1617.48ZM1517.58 1615.25L1503.07 1629.01L1531.43 1658.91L1545.94 1645.14L1560.45 1631.38L1532.09 1601.48L1517.58 1615.25ZM1545.94 1645.14L1549.56 1625.47L626.942 1455.71L623.323 1475.38L619.703 1495.05L1542.32 1664.81L1545.94 1645.14ZM623.323 1475.38L641.811 1467.75L38.9139 6.5451L20.4258 14.1733L1.93766 21.8016L604.834 1483.01L623.323 1475.38ZM20.4258 14.1733L6.31486 28.3466L48.9439 70.788L63.0548 56.6147L77.1657 42.4414L34.5367 4.00543e-05L20.4258 14.1733ZM63.0548 56.6147L48.9782 70.8221L2006.87 2010.7L2020.95 1996.49L2035.03 1982.28L77.1314 42.4074L63.0548 56.6147ZM2020.95 1996.49L2035.04 2010.68L3989.89 70.8112L3975.8 56.6147L3961.71 42.4183L2006.86 1982.29L2020.95 1996.49ZM3975.8 56.6147L3989.91 70.788L4032.54 28.3466L4018.43 14.1733L4004.32 4.00543e-05L3961.69 42.4414L3975.8 56.6147ZM4018.43 14.1733L3999.94 6.5451L3397.04 1467.75L3415.53 1475.38L3434.02 1483.01L4036.92 21.8016L4018.43 14.1733ZM93.889 126.673L75.9536 135.523L687.601 1375.09L705.536 1366.24L723.472 1357.39L111.824 117.823L93.889 126.673ZM705.536 1366.24L701.046 1385.73L1437.92 1555.5L1442.41 1536.01L1446.9 1516.52L710.026 1346.75L705.536 1366.24ZM1442.41 1536.01L1427.9 1549.77L1500.7 1626.51L1515.21 1612.75L1529.72 1598.98L1456.92 1522.24L1442.41 1536.01ZM1515.21 1612.75L1511.38 1632.38L1522.79 1634.6L1526.62 1614.98L1530.45 1595.35L1519.04 1593.12L1515.21 1612.75ZM1526.62 1614.98L1541.09 1601.17L90.3719 79.8709L75.898 93.6733L61.4241 107.476L1512.15 1628.78L1526.62 1614.98ZM75.898 93.6733L58.3381 103.247L76.3291 136.247L93.889 126.673L111.449 117.1L93.4579 84.1L75.898 93.6733ZM3952.46 3954.17L3966.13 3939.57L2064.33 2159.58L2050.66 2174.19L2037 2188.79L3938.79 3968.78L3952.46 3954.17ZM2050.66 2174.19L2065.75 2161.06L2036.04 2126.9L2020.95 2140.03L2005.86 2153.16L2035.58 2187.31L2050.66 2174.19ZM2020.95 2140.03L2005.86 2126.9L1976.15 2161.06L1991.24 2174.19L2006.32 2187.31L2036.04 2153.16L2020.95 2140.03ZM1991.24 2174.19L1977.6 2159.55L45.2703 3960.54L58.9065 3975.17L72.5427 3989.8L2004.87 2188.82L1991.24 2174.19ZM18.4268 4014.17L36.8536 4021.95L653.578 2560.3L635.151 2552.52L616.724 2544.75L-0.000118256 4006.4L18.4268 4014.17ZM635.421 2552.48L638.791 2572.19L1623.86 2403.8L1620.49 2384.08L1617.12 2364.37L632.051 2532.76L635.421 2552.48ZM1620.49 2384.08L1606.38 2369.91L1471.28 2504.41L1485.39 2518.58L1499.5 2532.76L1634.6 2398.25L1620.49 2384.08Z" fill="white"/>
</svg>
